<svg width="16" height="17" viewBox="0 0 16 17" fill="none" xmlns="http://www.w3.org/2000/svg">
<path d="M12.9109 1.73217H12.3141V1.12828C12.3141 0.783251 12.0344 0.503563 11.6894 0.503563C11.3444 0.503563 11.0647 0.783251 11.0647 1.12828V1.73217H4.9353V1.12828C4.9353 0.783251 4.65561 0.503563 4.31058 0.503563C3.96555 0.503563 3.68586 0.783251 3.68586 1.12828V1.73217H3.08909C1.38576 1.73217 0 3.11793 0 4.82123V13.4073C0 15.1107 1.38576 16.4964 3.08909 16.4964H12.9109C14.6142 16.4964 16 15.1107 16 13.4073V4.82123C16 3.11793 14.6142 1.73217 12.9109 1.73217ZM3.08909 2.98162H3.68586V4.19982C3.68586 4.54486 3.96555 4.82455 4.31058 4.82455C4.65561 4.82455 4.9353 4.54486 4.9353 4.19982V2.98162H11.0647V4.19982C11.0647 4.54486 11.3444 4.82455 11.6894 4.82455C12.0345 4.82455 12.3141 4.54486 12.3141 4.19982V2.98162H12.9109C13.9253 2.98162 14.7506 3.80687 14.7506 4.82123V5.41803H1.24944V4.82123C1.24944 3.80687 2.0747 2.98162 3.08909 2.98162ZM12.9109 15.247H3.08909C2.0747 15.247 1.24944 14.4217 1.24944 13.4073V6.66747H14.7506V13.4073C14.7506 14.4217 13.9253 15.247 12.9109 15.247ZM5.54962 9.12472C5.54962 9.46976 5.26993 9.74945 4.9249 9.74945H3.69629C3.35126 9.74945 3.07157 9.46976 3.07157 9.12472C3.07157 8.77969 3.35126 8.5 3.69629 8.5H4.9249C5.2699 8.5 5.54962 8.77969 5.54962 9.12472ZM12.9285 9.12472C12.9285 9.46976 12.6488 9.74945 12.3037 9.74945H11.0751C10.7301 9.74945 10.4504 9.46976 10.4504 9.12472C10.4504 8.77969 10.7301 8.5 11.0751 8.5H12.3037C12.6487 8.5 12.9285 8.77969 12.9285 9.12472ZM9.23548 9.12472C9.23548 9.46976 8.95579 9.74945 8.61076 9.74945H7.38215C7.03712 9.74945 6.75743 9.46976 6.75743 9.12472C6.75743 8.77969 7.03712 8.5 7.38215 8.5H8.61076C8.95576 8.5 9.23548 8.77969 9.23548 9.12472ZM5.54962 12.8106C5.54962 13.1556 5.26993 13.4353 4.9249 13.4353H3.69629C3.35126 13.4353 3.07157 13.1556 3.07157 12.8106C3.07157 12.4655 3.35126 12.1859 3.69629 12.1859H4.9249C5.2699 12.1859 5.54962 12.4655 5.54962 12.8106ZM12.9285 12.8106C12.9285 13.1556 12.6488 13.4353 12.3037 13.4353H11.0751C10.7301 13.4353 10.4504 13.1556 10.4504 12.8106C10.4504 12.4655 10.7301 12.1859 11.0751 12.1859H12.3037C12.6487 12.1859 12.9285 12.4655 12.9285 12.8106ZM9.23548 12.8106C9.23548 13.1556 8.95579 13.4353 8.61076 13.4353H7.38215C7.03712 13.4353 6.75743 13.1556 6.75743 12.8106C6.75743 12.4655 7.03712 12.1859 7.38215 12.1859H8.61076C8.95576 12.1859 9.23548 12.4655 9.23548 12.8106Z" fill="#D9151F"/>
</svg>
