<svg width="16" height="16" viewBox="0 0 16 16" fill="none" xmlns="http://www.w3.org/2000/svg">
<path d="M13.9333 2.36067C13.6985 1.71815 13.2721 1.1632 12.7118 0.770828C12.1514 0.378453 11.4841 0.167568 10.8 0.166672H5.2C4.51592 0.167568 3.84861 0.378453 3.28824 0.770828C2.72788 1.1632 2.30148 1.71815 2.06667 2.36067L0.26667 7.31201C0.0896361 7.79966 -0.000616488 8.31455 3.16924e-06 8.83334V9.50001C0.00119272 10.0152 0.122291 10.5231 0.353713 10.9833C0.585135 11.4436 0.920526 11.8438 1.33334 12.152V13.5C1.33334 14.0304 1.54405 14.5391 1.91912 14.9142C2.2942 15.2893 2.8029 15.5 3.33334 15.5C3.86377 15.5 4.37248 15.2893 4.74755 14.9142C5.12262 14.5391 5.33334 14.0304 5.33334 13.5V12.8333H10.6667V13.5C10.6667 14.0304 10.8774 14.5391 11.2525 14.9142C11.6275 15.2893 12.1362 15.5 12.6667 15.5C13.1971 15.5 13.7058 15.2893 14.0809 14.9142C14.456 14.5391 14.6667 14.0304 14.6667 13.5V12.152C15.0795 11.8438 15.4149 11.4436 15.6463 10.9833C15.8777 10.5231 15.9988 10.0152 16 9.50001V8.83334C16.0007 8.31476 15.9104 7.80008 15.7333 7.31267L13.9333 2.36067ZM3.32134 2.81667C3.46229 2.43145 3.71796 2.0987 4.05388 1.86328C4.38979 1.62785 4.7898 1.50106 5.2 1.50001H10.8C11.2104 1.50079 11.6107 1.62745 11.9469 1.8629C12.2831 2.09834 12.539 2.43124 12.68 2.81667L14.1387 6.83334H1.86067L3.32134 2.81667ZM4 13.5C4 13.6768 3.92977 13.8464 3.80474 13.9714C3.67972 14.0964 3.51015 14.1667 3.33334 14.1667C3.15653 14.1667 2.98696 14.0964 2.86193 13.9714C2.73691 13.8464 2.66667 13.6768 2.66667 13.5V12.7667C2.88609 12.8112 3.10944 12.8336 3.33334 12.8333H4V13.5ZM13.3333 13.5C13.3333 13.6768 13.2631 13.8464 13.1381 13.9714C13.0131 14.0964 12.8435 14.1667 12.6667 14.1667C12.4899 14.1667 12.3203 14.0964 12.1953 13.9714C12.0702 13.8464 12 13.6768 12 13.5V12.8333H12.6667C12.8906 12.8336 13.1139 12.8112 13.3333 12.7667V13.5ZM14.6667 9.50001C14.6667 10.0304 14.456 10.5391 14.0809 10.9142C13.7058 11.2893 13.1971 11.5 12.6667 11.5H3.33334C2.8029 11.5 2.2942 11.2893 1.91912 10.9142C1.54405 10.5391 1.33334 10.0304 1.33334 9.50001V8.83334C1.33605 8.60885 1.3631 8.38533 1.414 8.16667H2.66667V8.83334C2.66667 9.01015 2.73691 9.17972 2.86193 9.30474C2.98696 9.42977 3.15653 9.50001 3.33334 9.50001C3.51015 9.50001 3.67972 9.42977 3.80474 9.30474C3.92977 9.17972 4 9.01015 4 8.83334V8.16667H12V8.83334C12 9.01015 12.0702 9.17972 12.1953 9.30474C12.3203 9.42977 12.4899 9.50001 12.6667 9.50001C12.8435 9.50001 13.0131 9.42977 13.1381 9.30474C13.2631 9.17972 13.3333 9.01015 13.3333 8.83334V8.16667H14.586C14.6369 8.38532 14.664 8.60885 14.6667 8.83334V9.50001Z" fill="#F04A3F"/>
</svg>
