<svg width="20" height="20" viewBox="0 0 20 20" fill="none" xmlns="http://www.w3.org/2000/svg">
<g clip-path="url(#clip0_73_169)">
<path d="M4.55919 11.2833C3.92024 11.1894 3.2769 11.1284 2.63169 11.1004C2.34877 11.0829 1.97586 11.2304 1.91127 11.9438C1.89922 12.1231 1.91653 12.3033 1.96252 12.4771C2.00538 12.6586 2.10199 12.8229 2.23974 12.9486C2.37749 13.0743 2.54996 13.1556 2.73461 13.1817L5.49252 13.57C5.5063 13.5723 5.52023 13.5734 5.53419 13.5733C5.58806 13.5734 5.64103 13.5595 5.68795 13.5331C5.73488 13.5066 5.77417 13.4685 5.80201 13.4223C5.82985 13.3762 5.84529 13.3237 5.84684 13.2698C5.84839 13.216 5.836 13.1627 5.81086 13.115C4.90377 11.3896 4.67127 11.3179 4.55919 11.2833ZM2.82169 12.5629C2.76111 12.5537 2.7047 12.5264 2.65976 12.4848C2.61482 12.4431 2.58341 12.3889 2.56961 12.3292C2.54054 12.2221 2.52845 12.1112 2.53377 12.0004C2.53476 11.9056 2.55622 11.812 2.59669 11.7263H2.60544C3.31794 11.7708 4.11919 11.8354 4.33627 11.8738C4.57087 12.1877 4.78067 12.5194 4.96377 12.8658L2.82169 12.5629ZM17.3679 11.1004C16.7227 11.1284 16.0794 11.1894 15.4404 11.2833C15.3284 11.3179 15.0954 11.3896 14.1871 13.1167C14.162 13.1643 14.1496 13.2177 14.1511 13.2715C14.1527 13.3253 14.1681 13.3779 14.196 13.424C14.2238 13.4701 14.2631 13.5083 14.31 13.5347C14.3569 13.5612 14.4099 13.5751 14.4638 13.575C14.4777 13.5751 14.4917 13.5739 14.5054 13.5717L17.2634 13.1833C17.448 13.1572 17.6205 13.076 17.7582 12.9503C17.896 12.8246 17.9926 12.6602 18.0354 12.4788C18.0813 12.3049 18.0986 12.1248 18.0867 11.9454C18.0234 11.2304 17.6484 11.0833 17.3679 11.1004ZM17.43 12.3292C17.4162 12.3889 17.3848 12.4431 17.3399 12.4848C17.2949 12.5264 17.2385 12.5537 17.1779 12.5629L15.0359 12.8646C15.2191 12.5183 15.4287 12.1866 15.6629 11.8725C15.8838 11.8338 16.6859 11.7692 17.3979 11.725C17.4434 11.8096 17.4667 11.9044 17.4659 12.0004C17.4712 12.1112 17.4591 12.2221 17.43 12.3292ZM14.3259 11.5742C14.2944 11.5292 14.2516 11.4933 14.2019 11.47C14.1522 11.4468 14.0972 11.437 14.0425 11.4417C14.0138 11.4442 11.1434 11.6917 10.0009 11.6917C8.85836 11.6917 5.98752 11.4417 5.95919 11.4417C5.90447 11.4368 5.84945 11.4466 5.79969 11.4698C5.74992 11.4931 5.70718 11.529 5.67577 11.5741C5.64436 11.6192 5.6254 11.6717 5.62081 11.7265C5.61621 11.7812 5.62615 11.8362 5.64961 11.8858L6.47252 13.6321C6.49659 13.6828 6.53384 13.7262 6.58038 13.7576C6.62692 13.7891 6.68104 13.8075 6.73711 13.8108L9.99919 13.9975L13.2663 13.8108C13.3224 13.8075 13.3765 13.7892 13.4231 13.7578C13.4696 13.7263 13.5069 13.6829 13.5309 13.6321L14.3538 11.8858C14.3771 11.836 14.3867 11.781 14.3818 11.7262C14.3769 11.6715 14.3576 11.619 14.3259 11.5742ZM13.0434 13.1992L10 13.375L6.95836 13.1992L6.44544 12.1108C7.34502 12.1842 9.12836 12.3192 10.0013 12.3192C10.8742 12.3192 12.6579 12.1842 13.5579 12.1108L13.0434 13.1992ZM11.7963 2.08084L12.2571 2.25334C12.4078 2.30967 12.5446 2.39765 12.6584 2.51136C12.7722 2.62507 12.8603 2.76186 12.9167 2.9125L13.0892 3.375C13.1117 3.43413 13.1516 3.48502 13.2037 3.52093C13.2558 3.55683 13.3176 3.57606 13.3809 3.57606C13.4441 3.57606 13.5059 3.55683 13.558 3.52093C13.6101 3.48502 13.65 3.43413 13.6725 3.375L13.845 2.91417C13.9015 2.76364 13.9896 2.62694 14.1033 2.51324C14.217 2.39955 14.3537 2.3115 14.5042 2.255L14.965 2.0825C15.0242 2.06 15.075 2.02005 15.1109 1.96796C15.1469 1.91587 15.1661 1.8541 15.1661 1.79084C15.1661 1.72757 15.1469 1.6658 15.1109 1.61371C15.075 1.56162 15.0242 1.52168 14.965 1.49917L14.5042 1.32667C14.3535 1.27025 14.2168 1.18217 14.1031 1.06839C13.9893 0.954608 13.9014 0.817763 13.845 0.667087L13.6742 0.20292C13.6517 0.143793 13.6117 0.0929033 13.5596 0.0569964C13.5076 0.0210895 13.4458 0.00186157 13.3825 0.00186157C13.3193 0.00186157 13.2575 0.0210895 13.2054 0.0569964C13.1533 0.0929033 13.1134 0.143793 13.0909 0.20292L12.9167 0.663753C12.8604 0.81443 12.7724 0.951275 12.6587 1.06506C12.545 1.17884 12.4082 1.26691 12.2575 1.32334L11.7967 1.49584C11.7376 1.51834 11.6867 1.55829 11.6508 1.61038C11.6149 1.66247 11.5956 1.72424 11.5956 1.7875C11.5956 1.85077 11.6149 1.91254 11.6508 1.96463C11.6867 2.01672 11.7376 2.05666 11.7967 2.07917L11.7963 2.08084ZM13.3817 1.13875C13.5363 1.40931 13.7604 1.63359 14.0309 1.78834C13.7603 1.94297 13.5361 2.16728 13.3817 2.43792C13.2269 2.16741 13.0026 1.94315 12.7321 1.78834C13.0026 1.63352 13.2269 1.40926 13.3817 1.13875ZM15.3096 4.02042L15.6588 4.15125C15.7628 4.19031 15.8573 4.2512 15.9359 4.32983C16.0144 4.40846 16.0752 4.503 16.1142 4.60709L16.245 4.95625C16.2673 5.01589 16.3073 5.06729 16.3596 5.10358C16.4119 5.13986 16.4741 5.15931 16.5377 5.15931C16.6014 5.15931 16.6635 5.13986 16.7159 5.10358C16.7682 5.06729 16.8081 5.01589 16.8304 4.95625L16.9609 4.60709C16.9999 4.50297 17.0608 4.40842 17.1394 4.32979C17.218 4.25116 17.3126 4.19029 17.4167 4.15125L17.7659 4.02042C17.8248 3.99774 17.8755 3.95773 17.9113 3.90567C17.947 3.8536 17.9662 3.79192 17.9662 3.72875C17.9662 3.66559 17.947 3.60391 17.9113 3.55184C17.8755 3.49977 17.8248 3.45976 17.7659 3.43709L17.4167 3.30459C17.3126 3.26583 17.2182 3.20514 17.1397 3.12663C17.0611 3.04812 17.0004 2.95363 16.9617 2.84959L16.8304 2.5C16.8081 2.44037 16.7682 2.38897 16.7159 2.35268C16.6635 2.31639 16.6014 2.29695 16.5377 2.29695C16.4741 2.29695 16.4119 2.31639 16.3596 2.35268C16.3073 2.38897 16.2673 2.44037 16.245 2.5L16.1142 2.84959C16.0752 2.95363 16.0144 3.04811 15.9359 3.12667C15.8573 3.20523 15.7628 3.26604 15.6588 3.305L15.3092 3.43584C15.2501 3.45834 15.1992 3.49829 15.1633 3.55038C15.1274 3.60247 15.1081 3.66424 15.1081 3.7275C15.1081 3.79077 15.1274 3.85254 15.1633 3.90463C15.1992 3.95672 15.2501 3.99666 15.3092 4.01917L15.3096 4.02042ZM16.5375 3.375C16.6326 3.51218 16.7516 3.63115 16.8888 3.72625C16.7519 3.82154 16.633 3.94032 16.5375 4.07709C16.4423 3.94024 16.3235 3.82144 16.1867 3.72625C16.3237 3.63114 16.4426 3.51217 16.5375 3.375ZM17.2617 2.08084L17.6109 2.21167C17.7149 2.25059 17.8093 2.31134 17.8879 2.38982C17.9664 2.46831 18.0273 2.56271 18.0663 2.66667L18.1971 3.01584C18.2194 3.07547 18.2594 3.12687 18.3117 3.16316C18.364 3.19945 18.4262 3.21889 18.4898 3.21889C18.5535 3.21889 18.6156 3.19945 18.6679 3.16316C18.7202 3.12687 18.7602 3.07547 18.7825 3.01584L18.9134 2.66667C18.9522 2.56264 19.013 2.46816 19.0914 2.3896C19.1699 2.31104 19.2644 2.25022 19.3684 2.21125L19.7179 2.08042C19.7771 2.05791 19.828 2.01797 19.8639 1.96588C19.8998 1.91379 19.919 1.85202 19.919 1.78875C19.919 1.72549 19.8998 1.66372 19.8639 1.61163C19.828 1.55954 19.7771 1.51959 19.7179 1.49709L19.3688 1.36584C19.2648 1.32694 19.1704 1.26619 19.0919 1.1877C19.0134 1.10921 18.9527 1.0148 18.9138 0.910837L18.7829 0.561253C18.7606 0.50162 18.7207 0.45022 18.6684 0.413932C18.616 0.377643 18.5539 0.358198 18.4902 0.358198C18.4266 0.358198 18.3644 0.377643 18.3121 0.413932C18.2598 0.45022 18.2198 0.50162 18.1975 0.561253L18.0667 0.910837C18.0277 1.01483 17.9669 1.10925 17.8883 1.18774C17.8098 1.26623 17.7153 1.32696 17.6113 1.36584L17.2617 1.49709C17.2026 1.51959 17.1517 1.55954 17.1158 1.61163C17.0799 1.66372 17.0606 1.72549 17.0606 1.78875C17.0606 1.85202 17.0799 1.91379 17.1158 1.96588C17.1517 2.01797 17.2026 2.05833 17.2617 2.08084ZM18.4896 1.4375C18.585 1.57418 18.7038 1.69294 18.8404 1.78834C18.7038 1.88373 18.585 2.0025 18.4896 2.13917C18.3944 2.00232 18.2756 1.88352 18.1388 1.78834C18.2755 1.69304 18.3943 1.57426 18.4896 1.4375ZM19.0879 17.6546C19.0051 17.6546 18.9256 17.6875 18.867 17.7461C18.8084 17.8047 18.7754 17.8842 18.7754 17.9671V19.2646C18.7754 19.2939 18.7638 19.322 18.7431 19.3427C18.7224 19.3634 18.6943 19.375 18.665 19.375H17.0417C17.0124 19.375 16.9843 19.3634 16.9636 19.3427C16.9429 19.322 16.9313 19.2939 16.9313 19.2646V18.7296C16.9313 18.6467 16.8983 18.5672 16.8397 18.5086C16.7811 18.45 16.7017 18.4171 16.6188 18.4171C16.5359 18.4171 16.4564 18.45 16.3978 18.5086C16.3392 18.5672 16.3063 18.6467 16.3063 18.7296V19.2646C16.3065 19.4596 16.384 19.6465 16.5219 19.7844C16.6598 19.9222 16.8467 19.9998 17.0417 20H18.6667C18.8617 19.9998 19.0486 19.9222 19.1865 19.7844C19.3243 19.6465 19.4019 19.4596 19.4021 19.2646V17.9671C19.4021 17.9259 19.394 17.8851 19.3782 17.8471C19.3624 17.8091 19.3392 17.7746 19.31 17.7455C19.2808 17.7165 19.2461 17.6935 19.208 17.6779C19.1699 17.6623 19.1291 17.6544 19.0879 17.6546ZM3.35919 18.4167C3.27631 18.4167 3.19683 18.4496 3.13822 18.5082C3.07961 18.5668 3.04669 18.6463 3.04669 18.7292V19.2642C3.04669 19.2934 3.03512 19.3214 3.0145 19.3421C2.99388 19.3628 2.9659 19.3745 2.93669 19.3746H1.31169C1.28248 19.3745 1.2545 19.3628 1.23388 19.3421C1.21327 19.3214 1.20169 19.2934 1.20169 19.2642V17.9671C1.20169 17.8842 1.16877 17.8047 1.11016 17.7461C1.05156 17.6875 0.972071 17.6546 0.889191 17.6546C0.806311 17.6546 0.726825 17.6875 0.66822 17.7461C0.609615 17.8047 0.576691 17.8842 0.576691 17.9671V19.2646C0.5768 19.4594 0.654145 19.6462 0.791769 19.784C0.929392 19.9219 1.11606 19.9996 1.31086 20H2.93586C3.1308 19.9998 3.31768 19.9222 3.45548 19.7843C3.59329 19.6465 3.67075 19.4595 3.67086 19.2646V18.7296C3.67097 18.6468 3.63821 18.5673 3.57977 18.5086C3.52133 18.45 3.442 18.4169 3.35919 18.4167Z" fill="#D9151F"/>
<path d="M19.3454 7.85627L18.3038 7.67627C18.1516 7.64818 17.9943 7.67279 17.858 7.74603C17.7217 7.81928 17.6144 7.93678 17.5538 8.07918L17.4975 8.20418L16.7592 6.46252C16.5923 6.06317 16.3259 5.71321 15.9854 5.44597C15.645 5.17873 15.2417 5.00311 14.8142 4.93585C13.221 4.69399 11.6114 4.57613 10 4.58335C8.38857 4.57627 6.77902 4.69426 5.18584 4.93627C4.75832 5.00349 4.35513 5.17904 4.01467 5.44621C3.6742 5.71337 3.4078 6.06325 3.24084 6.46252L2.50001 8.20585L2.44751 8.08335C2.38737 7.94034 2.28034 7.82206 2.14402 7.74799C2.0077 7.67393 1.85022 7.64848 1.69751 7.67585L0.655842 7.85627C0.486797 7.8843 0.333194 7.97143 0.222396 8.10215C0.111599 8.23286 0.050804 8.39866 0.0508423 8.57002V8.7746C0.0509984 8.93955 0.107268 9.09954 0.210403 9.22826C0.313538 9.35699 0.4574 9.4468 0.618342 9.48293L1.60751 9.70627L1.16918 10.375C0.789368 10.9529 0.587285 11.6294 0.587926 12.3209V15.875C0.587926 17.2163 1.52209 18.0834 2.96876 18.0834H17.0313C18.4779 18.0834 19.4121 17.2167 19.4121 15.875V12.3192C19.4127 11.6277 19.2106 10.9512 18.8308 10.3734L18.3925 9.70668L19.3783 9.48418C19.5398 9.44849 19.6842 9.35889 19.7879 9.23014C19.8916 9.10138 19.9483 8.94116 19.9488 8.77585V8.57127C19.9492 8.39992 19.8888 8.23397 19.7783 8.10301C19.6678 7.97206 19.5144 7.88461 19.3454 7.85627ZM0.752926 8.87127C0.730993 8.86633 0.711399 8.85407 0.697384 8.83649C0.683368 8.81891 0.675769 8.79708 0.675842 8.7746V8.57002C0.675503 8.54641 0.683777 8.52349 0.699115 8.50555C0.714454 8.4876 0.735806 8.47586 0.759176 8.47252L1.80543 8.29168C1.8201 8.28904 1.83524 8.29181 1.84803 8.29947C1.86082 8.30713 1.87041 8.31917 1.87501 8.33335L2.13043 8.91085L1.97459 9.14835L0.752926 8.87127ZM18.7871 14.9042H2.00501C1.92213 14.9042 1.84264 14.9371 1.78404 14.9957C1.72543 15.0543 1.69251 15.1338 1.69251 15.2167C1.69251 15.2996 1.72543 15.3791 1.78404 15.4377C1.84264 15.4963 1.92213 15.5292 2.00501 15.5292H18.7871V15.875C18.7871 16.8658 18.1308 17.4584 17.0313 17.4584H2.96876C1.86918 17.4584 1.21293 16.8663 1.21293 15.875V12.3192C1.21249 11.7495 1.37892 11.1921 1.69168 10.7159L2.67668 9.21335H16.3104C16.3933 9.21335 16.4728 9.18043 16.5314 9.12182C16.59 9.06322 16.6229 8.98373 16.6229 8.90085C16.6229 8.81797 16.59 8.73849 16.5314 8.67988C16.4728 8.62127 16.3933 8.58835 16.3104 8.58835H3.01793L3.81626 6.70835C3.94191 6.40672 4.14277 6.14232 4.39969 5.94041C4.6566 5.7385 4.96097 5.60581 5.28376 5.55502C6.84447 5.31728 8.42131 5.20138 10 5.20835C11.5787 5.20096 13.1555 5.31645 14.7163 5.55377C15.0392 5.60468 15.3436 5.73756 15.6006 5.9397C15.8575 6.14184 16.0583 6.40648 16.1838 6.70835L17.0971 8.86127C17.1042 8.87849 17.113 8.89496 17.1233 8.91043L18.3083 10.7175C18.6211 11.1937 18.7875 11.7511 18.7871 12.3209V14.9042ZM19.3238 8.7746C19.3237 8.79753 19.3158 8.81975 19.3013 8.83752C19.2868 8.85528 19.2666 8.8675 19.2442 8.8721L18.0267 9.1471L17.8708 8.9096L18.1279 8.32627C18.1337 8.31363 18.1435 8.30327 18.1558 8.29679C18.1681 8.29031 18.1822 8.28807 18.1958 8.29043L19.24 8.47127C19.2634 8.47461 19.2847 8.48635 19.3001 8.5043C19.3154 8.52224 19.3237 8.54516 19.3233 8.56877L19.3238 8.7746Z" fill="#D9151F"/>
</g>
<defs>
<clipPath id="clip0_73_169">
<rect width="20" height="20" fill="white"/>
</clipPath>
</defs>
</svg>
