<svg width="24" height="24" viewBox="0 0 24 24" fill="none" xmlns="http://www.w3.org/2000/svg">
<path d="M22.4 4H8.20001L7.28001 0.956399C7.06223 0.2475 6.31444 -0.154043 5.60321 0.0559989L3.56601 0.655999C3.34159 0.72238 3.13809 0.845551 2.97521 1.0136L0.680008 3.3908C0.507426 3.57116 0.388332 3.79591 0.336008 4.04C0.102008 5.12 -0.543992 9.0352 0.988008 14.1C2.52001 19.1648 5.22801 22.0904 6.02401 22.866C6.20237 23.0411 6.42566 23.1635 6.66921 23.2196L9.90641 23.9664C10.0065 23.9895 10.1089 24.0012 10.2116 24.0012C10.3421 24.0011 10.472 23.9824 10.5972 23.9456L11.7244 23.6132L12.6328 23.3452C12.9786 23.2455 13.2697 23.0106 13.44 22.6936C13.6098 22.3819 13.6471 22.0151 13.5436 21.6756L13.0368 20H22.4C23.2837 20 24 19.2836 24 18.4V5.6C24 4.71634 23.2837 4 22.4 4V4ZM16.1 11.88L23.1508 5.3336C23.1825 5.41888 23.1992 5.50902 23.2 5.6V18.4C23.1989 18.4857 23.1839 18.5707 23.1556 18.6516L16.1 11.88ZM22.4 4.8C22.4454 4.80066 22.4906 4.80521 22.5352 4.8136L14.16 12.5872C13.8532 12.8718 13.3789 12.8718 13.072 12.5872L7.31201 7.2548L7.73641 7.1296C8.08158 7.02926 8.37198 6.79448 8.54241 6.478C8.71193 6.16651 8.74898 5.79991 8.64521 5.4608L8.44401 4.8H22.4ZM6.29361 16.4924C5.4678 15.4814 4.85375 14.3147 4.48801 13.0616C3.97138 11.4826 3.90093 9.79166 4.28441 8.1752C4.29267 8.15339 4.31102 8.13698 4.33361 8.1312L6.41641 7.5172L11.114 11.8644L6.29361 16.4924ZM12.7336 22.3128C12.6643 22.4413 12.546 22.5365 12.4056 22.5768L11.8752 22.7332L10.9012 19.51C10.8619 19.3708 10.7505 19.2636 10.6098 19.2298C10.4691 19.196 10.3212 19.2407 10.2229 19.3469C10.1245 19.453 10.0912 19.6039 10.1356 19.7416L11.11 22.96L10.3716 23.1776C10.2788 23.2052 10.1804 23.2082 10.086 23.1864L6.84881 22.44C6.7485 22.4166 6.65659 22.3659 6.58321 22.2936C5.82321 21.5516 3.22841 18.7504 1.75361 13.8688C0.278808 8.9872 0.894008 5.24 1.11761 4.2088C1.13912 4.10983 1.18757 4.01874 1.25761 3.9456L3.55041 1.5696C3.61655 1.50105 3.69919 1.45063 3.79041 1.4232L4.53481 1.204L5.50881 4.4268C5.55977 4.59561 5.71527 4.71114 5.89161 4.7112C5.9308 4.7114 5.96978 4.7056 6.00721 4.694C6.21858 4.6301 6.33818 4.407 6.27441 4.1956L5.30361 0.977999L5.82921 0.823199C6.11955 0.73568 6.42622 0.898206 6.51681 1.1876L7.87681 5.6916C7.91857 5.82667 7.90415 5.97288 7.83681 6.0972C7.76725 6.22566 7.64911 6.32089 7.50881 6.3616L6.97801 6.518L6.82081 5.998C6.75288 5.7919 6.53301 5.67755 6.32528 5.74029C6.11754 5.80302 5.99771 6.01995 6.05521 6.2292L6.21081 6.7444L4.10761 7.3644C3.81926 7.44865 3.59455 7.67533 3.51281 7.9644C3.09088 9.72545 3.16355 11.5688 3.72281 13.2912C4.21397 15.0394 5.17524 16.6194 6.50201 17.8592C6.72762 18.0581 7.04008 18.1262 7.32801 18.0392L9.43641 17.4176L9.59361 17.9376C9.63294 18.0768 9.74437 18.1839 9.88503 18.2178C10.0257 18.2516 10.1736 18.2068 10.272 18.1007C10.3703 17.9946 10.4036 17.8437 10.3592 17.706L10.2036 17.1908L10.7288 17.036C11.0192 16.9491 11.3255 17.1114 11.4168 17.4004L12.7768 21.9048C12.8189 22.0408 12.804 22.188 12.7356 22.3128H12.7336ZM12.7948 19.2L12.182 17.1716C11.9639 16.4614 11.2142 16.0596 10.502 16.2712L7.10201 17.2736C7.07759 17.2809 7.05115 17.2762 7.03081 17.2608C6.97481 17.2116 6.91081 17.1504 6.83681 17.0808L11.7024 12.4088L12.528 13.1732C13.1429 13.7401 14.09 13.7401 14.7048 13.1732L15.5128 12.4228L22.5556 19.1828C22.5044 19.1936 22.4523 19.1994 22.4 19.2H12.7948Z" fill="#D9151F"/>
<path d="M10.4 6.40001H16.8C17.0209 6.40001 17.2 6.22092 17.2 6C17.2 5.77909 17.0209 5.6 16.8 5.6H10.4C10.1791 5.6 10 5.77909 10 6C10 6.22092 10.1791 6.40001 10.4 6.40001Z" fill="#D9151F"/>
<path d="M22 8.8C21.7791 8.8 21.6 8.97909 21.6 9.2V14.8C21.6 15.0209 21.7791 15.2 22 15.2C22.2209 15.2 22.4 15.0209 22.4 14.8V9.2C22.4 8.97909 22.2209 8.8 22 8.8Z" fill="#D9151F"/>
</svg>
