<svg width="17" height="17" viewBox="0 0 17 17" fill="none" xmlns="http://www.w3.org/2000/svg">
<path d="M13.1873 1.12001L5.05927 9.24801C4.74883 9.55677 4.50272 9.92405 4.33519 10.3286C4.16766 10.7331 4.08203 11.1668 4.08327 11.6047V12.5C4.08327 12.6768 4.1535 12.8464 4.27853 12.9714C4.40355 13.0964 4.57312 13.1667 4.74993 13.1667H5.64527C6.08311 13.1679 6.51685 13.0823 6.92137 12.9148C7.32589 12.7472 7.69317 12.5011 8.00193 12.1907L16.1299 4.06267C16.5195 3.67212 16.7383 3.14299 16.7383 2.59134C16.7383 2.03969 16.5195 1.51056 16.1299 1.12001C15.7337 0.74127 15.2067 0.529907 14.6586 0.529907C14.1105 0.529907 13.5835 0.74127 13.1873 1.12001ZM15.1873 3.12001L7.05927 11.248C6.68335 11.6216 6.17527 11.832 5.64527 11.8333H5.4166V11.6047C5.41799 11.0747 5.62831 10.5666 6.00193 10.1907L14.1299 2.06267C14.2723 1.92664 14.4617 1.85074 14.6586 1.85074C14.8555 1.85074 15.0449 1.92664 15.1873 2.06267C15.3272 2.20302 15.4058 2.39314 15.4058 2.59134C15.4058 2.78955 15.3272 2.97966 15.1873 3.12001Z" fill="#161616"/>
<path d="M16.0833 6.486C15.9065 6.486 15.737 6.55624 15.6119 6.68126C15.4869 6.80629 15.4167 6.97586 15.4167 7.15267V10.5H12.75C12.2196 10.5 11.7109 10.7107 11.3358 11.0858C10.9607 11.4609 10.75 11.9696 10.75 12.5V15.1667H4.08333C3.5529 15.1667 3.04419 14.956 2.66912 14.5809C2.29405 14.2058 2.08333 13.6971 2.08333 13.1667V3.83333C2.08333 3.3029 2.29405 2.79419 2.66912 2.41912C3.04419 2.04405 3.5529 1.83333 4.08333 1.83333H10.1113C10.2881 1.83333 10.4577 1.7631 10.5827 1.63807C10.7078 1.51305 10.778 1.34348 10.778 1.16667C10.778 0.989856 10.7078 0.820286 10.5827 0.695262C10.4577 0.570238 10.2881 0.5 10.1113 0.5H4.08333C3.1996 0.501059 2.35237 0.852588 1.72748 1.47748C1.10259 2.10237 0.751059 2.9496 0.75 3.83333L0.75 13.1667C0.751059 14.0504 1.10259 14.8976 1.72748 15.5225C2.35237 16.1474 3.1996 16.4989 4.08333 16.5H11.6453C12.0833 16.5013 12.5171 16.4156 12.9218 16.2481C13.3264 16.0806 13.6938 15.8345 14.0027 15.524L15.7733 13.752C16.0838 13.4432 16.33 13.076 16.4977 12.6715C16.6653 12.267 16.7511 11.8332 16.75 11.3953V7.15267C16.75 6.97586 16.6798 6.80629 16.5547 6.68126C16.4297 6.55624 16.2601 6.486 16.0833 6.486ZM13.06 14.5813C12.792 14.8487 12.4531 15.0337 12.0833 15.1147V12.5C12.0833 12.3232 12.1536 12.1536 12.2786 12.0286C12.4036 11.9036 12.5732 11.8333 12.75 11.8333H15.3667C15.2842 12.2023 15.0993 12.5406 14.8333 12.8093L13.06 14.5813Z" fill="#161616"/>
</svg>
