<svg width="94" height="64" viewBox="0 0 94 64" fill="none" xmlns="http://www.w3.org/2000/svg">
<g clip-path="url(#clip0_153_95)">
<path d="M47.125 35.9926C45.4682 35.9926 44.125 37.3357 44.125 38.9926V44.9926H50.125V38.9926C50.125 37.3357 48.7818 35.9926 47.125 35.9926Z" fill="#D9151F"/>
<path d="M52.125 38.9925V44.9925H56.125C57.7818 44.9925 59.125 43.6493 59.125 41.9925V32.8715C59.1252 32.352 58.9233 31.8528 58.562 31.4795L50.064 22.2925C48.5646 20.6701 46.0339 20.5705 44.4115 22.07C44.3345 22.1412 44.2603 22.2154 44.189 22.2925L35.706 31.4765C35.3337 31.8513 35.1249 32.3582 35.125 32.8865V41.9925C35.125 43.6493 36.4682 44.9925 38.125 44.9925H42.125V38.9925C42.1437 36.2657 44.3453 34.0389 47.0034 33.9748C49.7505 33.9085 52.1041 36.1732 52.125 38.9925Z" fill="#D9151F"/>
<path d="M47.125 35.9926C45.4682 35.9926 44.125 37.3357 44.125 38.9926V44.9926H50.125V38.9926C50.125 37.3357 48.7818 35.9926 47.125 35.9926Z" fill="#D9151F"/>
</g>
<defs>
<clipPath id="clip0_153_95">
<rect width="24" height="24" fill="white" transform="translate(35.125 21)"/>
</clipPath>
</defs>
</svg>
