<svg width="17" height="16" viewBox="0 0 17 16" fill="none" xmlns="http://www.w3.org/2000/svg">
<path d="M12.1689 0H4.83105C2.44287 0 0.5 1.94287 0.5 4.33105V11.669C0.5 14.0571 2.44287 16 4.83105 16H12.169C14.5571 16 16.5 14.0571 16.5 11.669V4.33105C16.5 1.94287 14.5571 0 12.1689 0ZM8.49998 12.3749C6.08765 12.3749 4.12512 10.4124 4.12512 7.99998C4.12512 5.58761 6.08761 3.62512 8.49998 3.62512C10.9124 3.62512 12.8749 5.58761 12.8749 7.99998C12.8749 10.4124 10.9124 12.3749 8.49998 12.3749ZM12.9795 4.65687C12.2666 4.65687 11.6868 4.07702 11.6868 3.36412C11.6868 2.65121 12.2666 2.07131 12.9795 2.07131C13.6924 2.07131 14.2723 2.65124 14.2723 3.36412C14.2723 4.07699 13.6923 4.65687 12.9795 4.65687Z" fill="#777777"/>
<path d="M8.49999 4.56312C6.60499 4.56312 5.06311 6.10484 5.06311 7.99999C5.06311 9.89499 6.60499 11.4369 8.49999 11.4369C10.3951 11.4369 11.9369 9.89499 11.9369 7.99999C11.9369 6.10484 10.3951 4.56312 8.49999 4.56312ZM12.9795 3.00937C12.7839 3.00937 12.6247 3.16859 12.6247 3.36412C12.6247 3.55968 12.7839 3.71887 12.9795 3.71887C13.1751 3.71887 13.3343 3.55981 13.3343 3.36412C13.3343 3.16846 13.1751 3.00937 12.9795 3.00937Z" fill="#777777"/>
</svg>
