<svg width="95" height="64" viewBox="0 0 95 64" fill="none" xmlns="http://www.w3.org/2000/svg">
<g clip-path="url(#clip0_153_89)">
<path d="M59.375 32.247C59.2304 29.907 58.4042 27.6605 56.9982 25.7844C55.5922 23.9083 53.668 22.4846 51.4627 21.6889C49.2574 20.8933 46.8675 20.7603 44.5876 21.3064C42.3076 21.8526 40.2373 23.054 38.632 24.7626C37.0266 26.4711 35.9562 28.6121 35.5529 30.9216C35.1496 33.2311 35.431 35.6081 36.3623 37.7597C37.2936 39.9112 38.8342 41.7432 40.7941 43.0297C42.754 44.3163 45.0476 45.0012 47.392 45H54.375C55.7007 44.9986 56.9717 44.4714 57.9091 43.534C58.8465 42.5966 59.3737 41.3256 59.375 40V32.247ZM57.375 40C57.375 40.7956 57.0589 41.5587 56.4963 42.1213C55.9337 42.6839 55.1707 43 54.375 43H47.392C45.9809 42.9993 44.5858 42.7013 43.2977 42.1253C42.0096 41.5492 40.8573 40.7082 39.916 39.657C38.9702 38.6062 38.2599 37.3654 37.8329 36.0177C37.4059 34.6701 37.2719 33.2466 37.44 31.843C37.7054 29.6289 38.7002 27.5661 40.2674 25.9799C41.8347 24.3936 43.8853 23.3741 46.096 23.082C46.5272 23.0279 46.9614 23.0005 47.396 23C49.7265 22.9936 51.9848 23.8079 53.775 25.3C54.8205 26.1689 55.6787 27.2411 56.2975 28.4516C56.9163 29.6621 57.2829 30.9856 57.375 32.342V40Z" fill="#777777"/>
<path d="M43.375 30H47.375C47.6402 30 47.8946 29.8946 48.0821 29.7071C48.2696 29.5196 48.375 29.2652 48.375 29C48.375 28.7348 48.2696 28.4804 48.0821 28.2929C47.8946 28.1054 47.6402 28 47.375 28H43.375C43.1098 28 42.8554 28.1054 42.6679 28.2929C42.4804 28.4804 42.375 28.7348 42.375 29C42.375 29.2652 42.4804 29.5196 42.6679 29.7071C42.8554 29.8946 43.1098 30 43.375 30ZM51.375 32H43.375C43.1098 32 42.8554 32.1054 42.6679 32.2929C42.4804 32.4804 42.375 32.7348 42.375 33C42.375 33.2652 42.4804 33.5196 42.6679 33.7071C42.8554 33.8946 43.1098 34 43.375 34H51.375C51.6402 34 51.8946 33.8946 52.0821 33.7071C52.2696 33.5196 52.375 33.2652 52.375 33C52.375 32.7348 52.2696 32.4804 52.0821 32.2929C51.8946 32.1054 51.6402 32 51.375 32ZM51.375 36H43.375C43.1098 36 42.8554 36.1054 42.6679 36.2929C42.4804 36.4804 42.375 36.7348 42.375 37C42.375 37.2652 42.4804 37.5196 42.6679 37.7071C42.8554 37.8946 43.1098 38 43.375 38H51.375C51.6402 38 51.8946 37.8946 52.0821 37.7071C52.2696 37.5196 52.375 37.2652 52.375 37C52.375 36.7348 52.2696 36.4804 52.0821 36.2929C51.8946 36.1054 51.6402 36 51.375 36Z" fill="#777777"/>
</g>
<defs>
<clipPath id="clip0_153_89">
<rect width="24" height="24" fill="white" transform="translate(35.375 21)"/>
</clipPath>
</defs>
</svg>
