<svg width="20" height="20" viewBox="0 0 20 20" fill="none" xmlns="http://www.w3.org/2000/svg">
<path d="M19.4961 7.27364L18.4896 6.40387C18.4599 6.37821 18.4255 6.35864 18.3882 6.34629C18.351 6.33394 18.3116 6.32906 18.2725 6.33191C18.2333 6.33477 18.1951 6.34531 18.1601 6.36293C18.125 6.38055 18.0937 6.40491 18.0681 6.43462C18.0424 6.46431 18.0228 6.49877 18.0105 6.53603C17.9982 6.57329 17.9933 6.61262 17.9961 6.65177C17.999 6.69091 18.0095 6.72912 18.0271 6.76419C18.0448 6.79926 18.0691 6.83052 18.0988 6.85618L19.1052 7.72594C19.4639 8.03598 19.5036 8.58008 19.1936 8.93883L12.6566 16.5027C12.6309 16.5324 12.6113 16.5669 12.599 16.6042C12.5866 16.6414 12.5817 16.6808 12.5846 16.7199C12.5874 16.7591 12.598 16.7973 12.6156 16.8323C12.6332 16.8674 12.6575 16.8987 12.6872 16.9244C12.7169 16.95 12.7514 16.9696 12.7887 16.982C12.8259 16.9943 12.8653 16.9992 12.9044 16.9963C12.9436 16.9935 12.9818 16.983 13.0168 16.9653C13.0519 16.9477 13.0832 16.9234 13.1089 16.8937L19.6458 9.32969C20.1714 8.72157 20.1042 7.79919 19.4961 7.27364ZM17.7243 5.74231L13.0686 1.71883C12.774 1.46422 12.3978 1.33973 12.0096 1.36786C11.6212 1.3961 11.2671 1.57395 11.0125 1.86852L10.5689 2.3818C10.5433 2.4115 10.5237 2.44597 10.5114 2.48323C10.499 2.52049 10.4941 2.55981 10.497 2.59896C10.4998 2.63811 10.5104 2.67632 10.528 2.71139C10.5456 2.74647 10.5699 2.77774 10.5996 2.8034C10.6293 2.82908 10.6638 2.84866 10.7011 2.86101C10.7383 2.87336 10.7777 2.87825 10.8168 2.8754C10.856 2.87255 10.8942 2.86201 10.9292 2.84439C10.9643 2.82677 10.9956 2.80241 11.0212 2.7727L11.4648 2.25942C11.5385 2.17375 11.6284 2.10354 11.7293 2.05284C11.8303 2.00214 11.9403 1.97197 12.053 1.96407C12.2821 1.94723 12.5039 2.0209 12.6777 2.1711L17.3334 6.19458C17.3876 6.24158 17.4569 6.26742 17.5287 6.26735C17.5896 6.26733 17.6491 6.24868 17.6992 6.2139C17.7492 6.17911 17.7875 6.12986 17.8087 6.07274C17.83 6.01561 17.8333 5.95335 17.8182 5.89429C17.8031 5.83524 17.7703 5.78221 17.7243 5.74231Z" fill="#D9151F"/>
<path d="M14.8867 4.68564L6.83246 1.98415C6.07031 1.72853 5.24246 2.1406 4.98687 2.90263L4.88062 3.21939C4.85542 3.29455 4.8611 3.37664 4.89643 3.44761C4.93175 3.51859 4.99382 3.57262 5.06898 3.59782C5.14415 3.62303 5.22624 3.61734 5.29721 3.58202C5.36818 3.5467 5.42221 3.48463 5.44742 3.40946L5.55367 3.09271C5.70445 2.64314 6.19277 2.40005 6.64238 2.55087L14.6966 5.25232C15.1462 5.40314 15.3893 5.89149 15.2385 6.34103L11.4911 17.5137C11.4672 17.5885 11.4736 17.6697 11.5091 17.7398C11.5446 17.8099 11.6063 17.8632 11.6808 17.8882C11.7552 17.9132 11.8366 17.9078 11.9071 17.8733C11.9777 17.8388 12.0319 17.7779 12.0579 17.7038L15.8053 6.53118C16.0608 5.76919 15.6488 4.94122 14.8867 4.68564Z" fill="#D9151F"/>
<path d="M9.95293 3.93631H1.45773C0.653945 3.93631 0 4.59022 0 5.39401V17.1783C0 17.9821 0.653945 18.6361 1.45773 18.6361H9.95297C10.7568 18.6361 11.4107 17.9821 11.4107 17.1783V5.39401C11.4107 4.59022 10.7568 3.93631 9.95293 3.93631ZM10.8129 17.1783C10.8129 17.6525 10.4271 18.0383 9.95293 18.0383H1.45773C0.983555 18.0383 0.597812 17.6525 0.597812 17.1783V5.39401C0.597812 4.91983 0.983594 4.53408 1.45773 4.53408H9.95297C10.4271 4.53408 10.8129 4.91986 10.8129 5.39401V17.1783H10.8129Z" fill="#D9151F"/>
<path d="M10.1085 12.186H1.3022C1.22293 12.186 1.1469 12.2174 1.09084 12.2735C1.03479 12.3296 1.0033 12.4056 1.0033 12.4849C1.0033 12.5641 1.03479 12.6402 1.09084 12.6962C1.1469 12.7523 1.22293 12.7838 1.3022 12.7838H10.1086C10.1478 12.7838 10.1867 12.776 10.223 12.761C10.2592 12.746 10.2922 12.724 10.3199 12.6962C10.3477 12.6684 10.3697 12.6355 10.3847 12.5992C10.3997 12.563 10.4075 12.5241 10.4075 12.4848C10.4075 12.4456 10.3997 12.4067 10.3847 12.3705C10.3697 12.3342 10.3477 12.3012 10.3199 12.2735C10.2921 12.2457 10.2592 12.2237 10.2229 12.2087C10.1867 12.1937 10.1478 12.1859 10.1085 12.186ZM8.71509 13.8952H5.01376C4.93449 13.8952 4.85846 13.9267 4.80241 13.9828C4.74635 14.0389 4.71486 14.1149 4.71486 14.1942C4.71486 14.2734 4.74635 14.3495 4.80241 14.4055C4.85846 14.4616 4.93449 14.4931 5.01376 14.4931H8.71509C8.79437 14.4931 8.8704 14.4616 8.92645 14.4055C8.98251 14.3495 9.014 14.2734 9.014 14.1942C9.014 14.1149 8.98251 14.0389 8.92645 13.9828C8.8704 13.9267 8.79437 13.8952 8.71509 13.8952ZM4.0174 13.8952H2.69556C2.61629 13.8952 2.54026 13.9267 2.4842 13.9828C2.42815 14.0389 2.39666 14.1149 2.39666 14.1942C2.39666 14.2734 2.42815 14.3495 2.4842 14.4055C2.54026 14.4616 2.61629 14.4931 2.69556 14.4931H4.0174C4.09667 14.4931 4.1727 14.4616 4.22876 14.4055C4.28481 14.3495 4.3163 14.2734 4.3163 14.1942C4.3163 14.1149 4.28481 14.0389 4.22876 13.9828C4.1727 13.9267 4.09667 13.8952 4.0174 13.8952ZM8.71509 15.0379H2.69556C2.61629 15.0379 2.54026 15.0694 2.4842 15.1254C2.42815 15.1815 2.39666 15.2575 2.39666 15.3368C2.39666 15.416 2.42815 15.4921 2.4842 15.5481C2.54026 15.6042 2.61629 15.6357 2.69556 15.6357H8.71509C8.79437 15.6357 8.8704 15.6042 8.92645 15.5481C8.98251 15.4921 9.014 15.416 9.014 15.3368C9.014 15.2575 8.98251 15.1815 8.92645 15.1254C8.8704 15.0694 8.79437 15.0379 8.71509 15.0379ZM8.71509 16.1804H2.69556C2.61629 16.1804 2.54026 16.2119 2.4842 16.268C2.42815 16.324 2.39666 16.4001 2.39666 16.4794C2.39666 16.5586 2.42815 16.6347 2.4842 16.6907C2.54026 16.7468 2.61629 16.7783 2.69556 16.7783H8.71509C8.79437 16.7783 8.8704 16.7468 8.92645 16.6907C8.98251 16.6347 9.014 16.5586 9.014 16.4794C9.014 16.4001 8.98251 16.324 8.92645 16.268C8.8704 16.2119 8.79437 16.1804 8.71509 16.1804ZM8.99048 7.40439C8.97326 7.35135 8.94153 7.30419 8.8989 7.26825C8.85626 7.2323 8.80442 7.209 8.74923 7.20099L6.83115 6.92228L5.97337 5.18419C5.94868 5.13419 5.91049 5.09209 5.86312 5.06265C5.81576 5.03321 5.7611 5.01761 5.70533 5.01761C5.64956 5.01761 5.5949 5.03321 5.54753 5.06265C5.50016 5.09209 5.46197 5.13419 5.43728 5.18419L4.57947 6.92228L2.66138 7.20099C2.60621 7.20903 2.55438 7.23234 2.51175 7.26828C2.46913 7.30423 2.43741 7.35138 2.42018 7.40441C2.40295 7.45744 2.4009 7.51423 2.41426 7.56837C2.42761 7.6225 2.45584 7.67183 2.49576 7.71076L3.88373 9.06365L3.55607 10.974C3.54665 11.029 3.55279 11.0855 3.57381 11.1372C3.59482 11.1888 3.62987 11.2336 3.67499 11.2663C3.72011 11.2991 3.77349 11.3186 3.82912 11.3227C3.88474 11.3267 3.94038 11.3151 3.98974 11.2891L5.70533 10.3871L7.42091 11.2891C7.47028 11.3151 7.52592 11.3267 7.58154 11.3227C7.63716 11.3186 7.69055 11.2991 7.73566 11.2663C7.78078 11.2336 7.81583 11.1888 7.83684 11.1372C7.85786 11.0855 7.864 11.029 7.85458 10.974L7.52693 9.06365L8.91486 7.71076C8.95479 7.67183 8.98303 7.62251 8.99639 7.56837C9.00976 7.51423 9.00771 7.45743 8.99048 7.40439ZM6.99716 8.74529C6.96245 8.77911 6.93649 8.82087 6.92151 8.86696C6.90653 8.91305 6.90299 8.96209 6.91119 9.00986L7.16302 10.4782L5.84439 9.7849C5.80149 9.76236 5.75376 9.75059 5.70531 9.75059C5.65685 9.75059 5.60912 9.76236 5.56623 9.7849L4.24759 10.4782L4.49943 9.00986C4.50762 8.96209 4.50407 8.91305 4.48909 8.86696C4.47411 8.82087 4.44815 8.77912 4.41345 8.74529L3.34669 7.70544L4.82095 7.49119C4.86891 7.48422 4.91445 7.4657 4.95366 7.43721C4.99286 7.40872 5.02455 7.37113 5.04599 7.32767L5.70529 5.99173L6.36458 7.32767C6.38603 7.37113 6.41772 7.40872 6.45692 7.43721C6.49612 7.46569 6.54167 7.48422 6.58962 7.49119L8.06392 7.70544L6.99716 8.74529Z" fill="#D9151F"/>
</svg>
