<svg width="95" height="64" viewBox="0 0 95 64" fill="none" xmlns="http://www.w3.org/2000/svg">
<g clip-path="url(#clip0_153_82)">
<path d="M52.0794 27.7689H46.119C45.5937 27.7689 45.1679 28.1947 45.1679 28.7201C45.1679 29.2454 45.5937 29.6712 46.119 29.6712H52.0794C52.6051 29.6712 53.0306 29.2454 53.0306 28.7201C53.0305 28.1947 52.6048 27.7689 52.0794 27.7689ZM54.3621 32.366H46.119C45.5937 32.366 45.1679 32.7918 45.1679 33.3171C45.1679 33.8425 45.5937 34.2683 46.119 34.2683H54.3621C54.8874 34.2683 55.3133 33.8425 55.3133 33.3171C55.3133 32.7918 54.8874 32.366 54.3621 32.366Z" fill="#777777"/>
<path d="M58.6739 21.8085H41.839C41.3137 21.8085 40.8878 22.2342 40.8878 22.7596V31.7319H39.2076C37.2321 31.7319 35.625 33.3393 35.625 35.3144V40.609C35.625 42.5845 37.2321 44.1916 39.2076 44.1916C39.3692 44.1916 39.5284 44.1808 39.6841 44.1599H55.3767C57.719 44.1599 59.625 42.2541 59.625 39.9116V22.7596C59.625 22.2342 59.1992 21.8085 58.6739 21.8085ZM40.8879 40.609C40.8879 41.4241 40.3042 42.1058 39.5329 42.2576H39.2076V42.2893C38.2809 42.2893 37.5273 41.5353 37.5273 40.609V35.3144C37.5273 34.388 38.2812 33.6341 39.2076 33.6341H40.8879L40.8879 40.609ZM57.7228 39.9115C57.7228 41.1832 56.6486 42.2576 55.3767 42.2576H42.3878C42.6449 41.764 42.7901 41.2031 42.7901 40.609V23.7107H57.7228V39.9115Z" fill="#777777"/>
<path d="M52.0794 36.678H46.119C45.5937 36.678 45.1679 37.1037 45.1679 37.6291C45.1679 38.1544 45.5937 38.5803 46.119 38.5803H52.0794C52.6051 38.5803 53.0306 38.1545 53.0306 37.6291C53.0305 37.1037 52.6048 36.678 52.0794 36.678Z" fill="#777777"/>
</g>
<defs>
<clipPath id="clip0_153_82">
<rect width="24" height="24" fill="white" transform="translate(35.625 21)"/>
</clipPath>
</defs>
</svg>
