<svg width="22" height="24" viewBox="0 0 22 24" fill="none" xmlns="http://www.w3.org/2000/svg">
<path d="M21.3565 3.4145C21.322 3.215 21.17 3.0555 20.972 3.0115C20.905 2.997 14.2315 1.5075 11.218 0.0499971C11.0805 -0.0165029 10.92 -0.0165029 10.7825 0.0499971C7.7685 1.5075 1.09501 2.997 1.02801 3.0115C0.830006 3.0555 0.678006 3.215 0.643506 3.4145C0.637006 3.451 0.0770064 7.3835 1.21951 12.053C2.60851 17.7275 5.9215 21.844 10.801 23.959C10.8645 23.9865 10.932 24 11 24C11.068 24 11.1355 23.9865 11.1985 23.959C16.078 21.8445 19.391 17.7275 20.78 12.053C21.923 7.3835 21.363 3.451 21.3565 3.4145V3.4145ZM19.8085 11.8155C18.4975 17.173 15.534 20.919 11 22.9535C6.466 20.919 3.50251 17.1725 2.19151 11.8155C1.29551 8.1555 1.49601 4.918 1.59301 3.9095C2.99601 3.5865 8.1915 2.3455 11 1.0525C13.8085 2.3455 19.004 3.586 20.407 3.909C20.504 4.918 20.7045 8.1555 19.8085 11.8155Z" fill="#D9151F"/>
<path d="M18.617 5.02249C17.5875 4.76749 16.585 4.50199 15.6365 4.23299C15.3695 4.15599 15.094 4.31149 15.019 4.57699C14.944 4.84299 15.0975 5.11949 15.363 5.19449C16.207 5.43399 17.0925 5.67049 18.001 5.899C18.0025 6.743 17.957 7.5975 17.865 8.4455C17.835 8.72 18.0335 8.967 18.308 8.997C18.3265 8.999 18.3445 9 18.363 9C18.615 9 18.832 8.81 18.8595 8.554C18.9705 7.536 19.0165 6.508 18.997 5.49799C18.9925 5.27199 18.837 5.07649 18.617 5.02249Z" fill="#D9151F"/>
<path d="M13.75 9.5H8.25C7.423 9.5 6.75 10.173 6.75 11V15C6.75 15.827 7.423 16.5 8.25 16.5H13.75C14.577 16.5 15.25 15.827 15.25 15V11C15.25 10.173 14.577 9.5 13.75 9.5ZM14.25 15C14.25 15.276 14.026 15.5 13.75 15.5H8.25C7.974 15.5 7.75 15.276 7.75 15V11C7.75 10.724 7.974 10.5 8.25 10.5H13.75C14.026 10.5 14.25 10.724 14.25 11V15Z" fill="#D9151F"/>
<path d="M8.5 9C8.7765 9 9 8.7765 9 8.5C9 7.397 9.897 6.5 11 6.5C12.103 6.5 13 7.397 13 8.5C13 8.7765 13.2235 9 13.5 9C13.7765 9 14 8.7765 14 8.5C14 6.8455 12.6545 5.5 11 5.5C9.3455 5.5 8 6.8455 8 8.5C8 8.7765 8.2235 9 8.5 9Z" fill="#D9151F"/>
</svg>
