<svg width="14" height="17" viewBox="0 0 14 17" fill="none" xmlns="http://www.w3.org/2000/svg">
<path d="M12.75 3.16667H10.6834C10.5286 2.41428 10.1193 1.73823 9.52421 1.25248C8.92916 0.766727 8.18484 0.50097 7.41671 0.5L6.08337 0.5C5.31524 0.50097 4.57092 0.766727 3.97587 1.25248C3.38083 1.73823 2.97144 2.41428 2.81671 3.16667H0.750041C0.57323 3.16667 0.40366 3.2369 0.278636 3.36193C0.153612 3.48695 0.083374 3.65652 0.083374 3.83333C0.083374 4.01014 0.153612 4.17971 0.278636 4.30474C0.40366 4.42976 0.57323 4.5 0.750041 4.5H1.41671V13.1667C1.41777 14.0504 1.7693 14.8976 2.39419 15.5225C3.01908 16.1474 3.86631 16.4989 4.75004 16.5H8.75004C9.63377 16.4989 10.481 16.1474 11.1059 15.5225C11.7308 14.8976 12.0823 14.0504 12.0834 13.1667V4.5H12.75C12.9269 4.5 13.0964 4.42976 13.2214 4.30474C13.3465 4.17971 13.4167 4.01014 13.4167 3.83333C13.4167 3.65652 13.3465 3.48695 13.2214 3.36193C13.0964 3.2369 12.9269 3.16667 12.75 3.16667ZM6.08337 1.83333H7.41671C7.83022 1.83384 8.23346 1.96225 8.57112 2.20096C8.90877 2.43967 9.16432 2.77699 9.30271 3.16667H4.19737C4.33576 2.77699 4.59131 2.43967 4.92897 2.20096C5.26662 1.96225 5.66986 1.83384 6.08337 1.83333ZM10.75 13.1667C10.75 13.6971 10.5393 14.2058 10.1643 14.5809C9.78918 14.956 9.28047 15.1667 8.75004 15.1667H4.75004C4.21961 15.1667 3.7109 14.956 3.33583 14.5809C2.96075 14.2058 2.75004 13.6971 2.75004 13.1667V4.5H10.75V13.1667Z" fill="#161616"/>
<path d="M5.41667 12.5C5.59348 12.5 5.76305 12.4297 5.88807 12.3047C6.0131 12.1797 6.08333 12.0101 6.08333 11.8333V7.83329C6.08333 7.65648 6.0131 7.48691 5.88807 7.36189C5.76305 7.23686 5.59348 7.16663 5.41667 7.16663C5.23986 7.16663 5.07029 7.23686 4.94526 7.36189C4.82024 7.48691 4.75 7.65648 4.75 7.83329V11.8333C4.75 12.0101 4.82024 12.1797 4.94526 12.3047C5.07029 12.4297 5.23986 12.5 5.41667 12.5ZM8.08333 12.5C8.26014 12.5 8.42971 12.4297 8.55474 12.3047C8.67976 12.1797 8.75 12.0101 8.75 11.8333V7.83329C8.75 7.65648 8.67976 7.48691 8.55474 7.36189C8.42971 7.23686 8.26014 7.16663 8.08333 7.16663C7.90652 7.16663 7.73695 7.23686 7.61193 7.36189C7.4869 7.48691 7.41667 7.65648 7.41667 7.83329V11.8333C7.41667 12.0101 7.4869 12.1797 7.61193 12.3047C7.73695 12.4297 7.90652 12.5 8.08333 12.5Z" fill="#161616"/>
</svg>
