<svg width="17" height="16" viewBox="0 0 17 16" fill="none" xmlns="http://www.w3.org/2000/svg">
<path d="M16.1864 11.7012C14.0473 11.3491 13.0832 9.15804 13.0442 9.06503C13.0412 9.05903 13.0392 9.05303 13.0352 9.04703C12.9262 8.82502 12.9002 8.64202 12.9602 8.50301C13.0772 8.229 13.5252 8.08699 13.8213 7.99298C13.9073 7.96598 13.9883 7.93998 14.0553 7.91398C14.3473 7.79898 14.5553 7.67397 14.6933 7.53296C14.8573 7.36396 14.8893 7.20195 14.8873 7.09694C14.8823 6.84093 14.6863 6.61292 14.3733 6.50191C14.2683 6.45891 14.1473 6.43591 14.0253 6.43591C13.9423 6.43591 13.8183 6.44691 13.7012 6.50191C13.4512 6.61892 13.2272 6.68292 13.0342 6.69192C12.9322 6.68692 12.8602 6.66492 12.8132 6.64392C12.8192 6.54392 12.8252 6.44091 12.8322 6.33491L12.8352 6.2889C12.9042 5.20585 12.9892 3.85879 12.6312 3.05875C12.3862 2.51073 12.0572 2.03971 11.6521 1.65769C11.3131 1.33767 10.9191 1.07766 10.4811 0.885652C9.72006 0.549636 9.01003 0.499634 8.65401 0.499634H8.61401C8.515 0.500634 8.35399 0.502634 8.33899 0.502634C7.98398 0.502634 7.27294 0.552636 6.50991 0.888652C6.07289 1.08066 5.68087 1.33967 5.34285 1.65969C4.93983 2.04171 4.61182 2.51173 4.36781 3.05775C4.00979 3.85679 4.0948 5.20385 4.1628 6.2859V6.2879C4.1698 6.40391 4.1778 6.52492 4.1848 6.64292C4.1328 6.66592 4.04779 6.69192 3.92279 6.69192C3.72078 6.69192 3.48077 6.62792 3.20975 6.50092C3.12975 6.46391 3.03875 6.44491 2.93874 6.44491C2.77773 6.44491 2.60673 6.49191 2.45972 6.57892C2.27371 6.68792 2.1537 6.84093 2.1207 7.01194C2.0997 7.12394 2.1007 7.34695 2.34871 7.57297C2.48572 7.69697 2.68573 7.81198 2.94474 7.91398C3.01274 7.94098 3.09375 7.96598 3.17875 7.99298C3.47477 8.08699 3.92379 8.229 4.04079 8.50301C4.0998 8.64202 4.07379 8.82502 3.96479 9.04703C3.96171 9.05284 3.95903 9.05886 3.95679 9.06503C3.92879 9.12904 3.67378 9.70407 3.15075 10.3111C2.85374 10.6561 2.52672 10.9451 2.17871 11.1691C1.75369 11.4431 1.29466 11.6212 0.813641 11.7002C0.624632 11.7312 0.489626 11.8992 0.500627 12.0902C0.503627 12.1452 0.516627 12.2002 0.539628 12.2532V12.2542C0.616632 12.4332 0.79364 12.5842 1.08165 12.7172C1.43367 12.8802 1.9597 13.0172 2.64673 13.1242C2.68173 13.1902 2.71773 13.3552 2.74273 13.4682C2.76873 13.5882 2.79573 13.7123 2.83474 13.8433C2.87674 13.9853 2.98474 14.1553 3.26376 14.1553C3.36976 14.1553 3.49077 14.1313 3.63177 14.1043C3.83778 14.0643 4.1198 14.0093 4.47081 14.0093C4.66582 14.0093 4.86783 14.0263 5.07084 14.0603C5.46286 14.1253 5.80087 14.3633 6.19189 14.6393C6.76392 15.0433 7.41195 15.5003 8.402 15.5003C8.429 15.5003 8.456 15.4993 8.483 15.4973C8.5213 15.4995 8.55965 15.5005 8.59801 15.5003C9.58805 15.5003 10.2361 15.0433 10.8081 14.6403L10.8091 14.6393C11.2001 14.3643 11.5381 14.1263 11.9302 14.0613C12.1332 14.0273 12.3352 14.0103 12.5302 14.0103C12.8662 14.0103 13.1322 14.0533 13.3692 14.0993C13.5242 14.1293 13.6442 14.1443 13.7372 14.1443H13.7552C13.9593 14.1443 14.1093 14.0323 14.1663 13.8373C14.2043 13.7083 14.2313 13.5882 14.2583 13.4652C14.2813 13.3592 14.3193 13.1892 14.3533 13.1232C15.0403 13.0152 15.5663 12.8792 15.9183 12.7162C16.2054 12.5832 16.3824 12.4322 16.4594 12.2542C16.4824 12.2012 16.4964 12.1462 16.4994 12.0892C16.5104 11.9002 16.3754 11.7312 16.1864 11.7012Z" fill="#777777"/>
</svg>
