<svg width="94" height="64" viewBox="0 0 94 64" fill="none" xmlns="http://www.w3.org/2000/svg">
<g clip-path="url(#clip0_153_77)">
<path d="M46.875 21C40.258 21 34.875 26.383 34.875 33C34.875 39.617 40.258 45 46.875 45C53.492 45 58.875 39.617 58.875 33C58.875 26.383 53.492 21 46.875 21ZM42.875 42.164V42C42.875 39.794 44.669 38 46.875 38C49.081 38 50.875 39.794 50.875 42V42.164C49.649 42.701 48.297 43 46.875 43C45.453 43 44.101 42.701 42.875 42.164ZM52.8 41.051C52.344 38.192 49.861 36 46.875 36C43.889 36 41.407 38.192 40.95 41.051C39.6869 40.1227 38.6599 38.9102 37.952 37.5116C37.2441 36.113 36.8752 34.5675 36.875 33C36.875 27.486 41.361 23 46.875 23C52.389 23 56.875 27.486 56.875 33C56.8748 34.5675 56.5059 36.113 55.798 37.5116C55.0901 38.9102 54.0631 40.1227 52.8 41.051ZM46.875 26C44.669 26 42.875 27.794 42.875 30C42.875 32.206 44.669 34 46.875 34C49.081 34 50.875 32.206 50.875 30C50.875 27.794 49.081 26 46.875 26ZM46.875 32C45.772 32 44.875 31.103 44.875 30C44.875 28.897 45.772 28 46.875 28C47.978 28 48.875 28.897 48.875 30C48.875 31.103 47.978 32 46.875 32Z" fill="#777777"/>
</g>
<defs>
<clipPath id="clip0_153_77">
<rect width="24" height="24" fill="white" transform="translate(34.875 21)"/>
</clipPath>
</defs>
</svg>
