<svg width="24" height="24" viewBox="0 0 24 24" fill="none" xmlns="http://www.w3.org/2000/svg">
<path d="M12 0.375C9.7008 0.375 7.45322 1.05679 5.5415 2.33417C3.62978 3.61154 2.13977 5.42711 1.25991 7.55131C0.380037 9.6755 0.149823 12.0129 0.598376 14.2679C1.04693 16.523 2.1541 18.5943 3.77989 20.2201C5.40567 21.8459 7.47705 22.9531 9.73208 23.4016C11.9871 23.8502 14.3245 23.62 16.4487 22.7401C18.5729 21.8602 20.3885 20.3702 21.6658 18.4585C22.9432 16.5468 23.625 14.2992 23.625 12C23.6215 8.91792 22.3956 5.96308 20.2163 3.78372C18.0369 1.60436 15.0821 0.378474 12 0.375ZM12 22.875C9.84913 22.875 7.74656 22.2372 5.95818 21.0422C4.16979 19.8473 2.77592 18.1488 1.95282 16.1617C1.12971 14.1745 0.914351 11.9879 1.33397 9.87839C1.75358 7.76885 2.78932 5.83111 4.31022 4.31021C5.83112 2.78932 7.76885 1.75357 9.8784 1.33396C11.9879 0.914346 14.1745 1.12971 16.1617 1.95281C18.1488 2.77591 19.8473 4.16979 21.0422 5.95817C22.2372 7.74656 22.875 9.84913 22.875 12C22.8717 14.8832 21.7249 17.6474 19.6862 19.6862C17.6474 21.7249 14.8832 22.8717 12 22.875Z" fill="#F04A3F"/>
<path d="M12.75 17.625H7.125C7.02557 17.6249 6.93024 17.5854 6.85993 17.5151C6.78963 17.4448 6.75009 17.3494 6.75 17.25V16.5C6.75099 15.6052 7.10689 14.7473 7.73961 14.1146C8.37233 13.4819 9.2302 13.126 10.125 13.125H11.625C12.523 13.1277 13.3923 12.809 14.0758 12.2265C14.7593 11.644 15.2119 10.8363 15.3516 9.94919C15.4914 9.06213 15.3092 8.15433 14.8379 7.38991C14.3667 6.62549 13.6375 6.05491 12.7821 5.78132C11.9268 5.50773 11.0018 5.54918 10.1744 5.89819C9.34701 6.2472 8.67177 6.88073 8.27078 7.68424C7.86979 8.48775 7.76951 9.40821 7.98808 10.2792C8.20665 11.1502 8.72963 11.9143 9.46249 12.4333C8.49708 12.591 7.61905 13.0864 6.9849 13.8312C6.35076 14.576 6.00172 15.5218 6 16.5V17.25C6.00033 17.5483 6.11896 17.8342 6.32987 18.0451C6.54077 18.256 6.82673 18.3747 7.125 18.375H12.75C12.8495 18.375 12.9448 18.3355 13.0152 18.2652C13.0855 18.1948 13.125 18.0994 13.125 18C13.125 17.9005 13.0855 17.8052 13.0152 17.7348C12.9448 17.6645 12.8495 17.625 12.75 17.625ZM8.625 9.37499C8.625 8.78165 8.80095 8.20163 9.13059 7.70828C9.46024 7.21493 9.92877 6.83042 10.4769 6.60335C11.0251 6.37629 11.6283 6.31688 12.2103 6.43264C12.7922 6.54839 13.3268 6.83411 13.7463 7.25367C14.1659 7.67323 14.4516 8.20778 14.5674 8.78972C14.6831 9.37166 14.6237 9.97486 14.3966 10.523C14.1696 11.0712 13.7851 11.5398 13.2917 11.8694C12.7984 12.199 12.2183 12.375 11.625 12.375C10.8296 12.3741 10.0671 12.0577 9.50469 11.4953C8.94228 10.9329 8.62591 10.1704 8.625 9.37499Z" fill="#F04A3F"/>
<path d="M17.8902 13.6099C17.8554 13.5751 17.814 13.5474 17.7686 13.5286C17.7231 13.5097 17.6743 13.5 17.6251 13.5C17.5758 13.5 17.5271 13.5097 17.4816 13.5286C17.4361 13.5474 17.3947 13.5751 17.3599 13.6099L16.034 14.9357L14.7082 13.6099C14.6375 13.5413 14.5427 13.5033 14.4442 13.5041C14.3458 13.5048 14.2516 13.5442 14.1819 13.6139C14.1123 13.6835 14.0728 13.7777 14.0721 13.8762C14.0713 13.9746 14.1093 14.0695 14.1779 14.1401L15.5038 15.466L14.1779 16.7919C14.1091 16.8625 14.0708 16.9574 14.0714 17.056C14.072 17.1547 14.1115 17.2491 14.1812 17.3188C14.251 17.3886 14.3454 17.428 14.444 17.4287C14.5427 17.4293 14.6376 17.391 14.7082 17.3222L16.034 15.9963L17.3599 17.3222C17.4309 17.3912 17.5261 17.4297 17.6251 17.4297C17.7241 17.4297 17.8192 17.3912 17.8902 17.3222C17.9605 17.2518 18 17.1565 18 17.057C18 16.9576 17.9605 16.8622 17.8902 16.7919L16.5643 15.466L17.8902 14.1401C17.925 14.1053 17.9527 14.064 17.9715 14.0185C17.9904 13.973 18.0001 13.9243 18.0001 13.875C18.0001 13.8258 17.9904 13.777 17.9715 13.7315C17.9527 13.686 17.925 13.6447 17.8902 13.6099Z" fill="#F04A3F"/>
</svg>
