<svg width="16" height="14" viewBox="0 0 16 14" fill="none" xmlns="http://www.w3.org/2000/svg">
<path d="M14 2.99998H3.33333C3.05219 2.99946 2.77429 2.93991 2.51762 2.82519C2.26095 2.71046 2.03123 2.54311 1.84333 2.33398C2.03065 2.12404 2.26023 1.95607 2.51701 1.84106C2.77379 1.72606 3.05198 1.66662 3.33333 1.66665H15.3333C15.5101 1.66665 15.6797 1.59641 15.8047 1.47138C15.9298 1.34636 16 1.17679 16 0.99998C16 0.823169 15.9298 0.653599 15.8047 0.528575C15.6797 0.403551 15.5101 0.333313 15.3333 0.333313H3.33333C2.44928 0.333313 1.60143 0.684503 0.976311 1.30962C0.351189 1.93475 0 2.78259 0 3.66665L0 10.3333C0 11.2174 0.351189 12.0652 0.976311 12.6903C1.60143 13.3155 2.44928 13.6666 3.33333 13.6666H14C14.5304 13.6666 15.0391 13.4559 15.4142 13.0809C15.7893 12.7058 16 12.1971 16 11.6666V4.99998C16 4.46955 15.7893 3.96084 15.4142 3.58577C15.0391 3.21069 14.5304 2.99998 14 2.99998ZM14.6667 11.6666C14.6667 12.034 14.368 12.3333 14 12.3333H3.33333C2.23067 12.3333 1.33333 11.436 1.33333 10.3333V3.66531C1.91042 4.09801 2.61204 4.33235 3.33333 4.33331H14C14.368 4.33331 14.6667 4.63265 14.6667 4.99998V11.6666ZM13.3333 8.33331C13.3333 8.51013 13.2631 8.6797 13.1381 8.80472C13.013 8.92974 12.8435 8.99998 12.6667 8.99998C12.4899 8.99998 12.3203 8.92974 12.1953 8.80472C12.0702 8.6797 12 8.51013 12 8.33331C12 8.1565 12.0702 7.98693 12.1953 7.86191C12.3203 7.73689 12.4899 7.66665 12.6667 7.66665C12.8435 7.66665 13.013 7.73689 13.1381 7.86191C13.2631 7.98693 13.3333 8.1565 13.3333 8.33331Z" fill="#777777"/>
</svg>
