<svg width="20" height="20" viewBox="0 0 20 20" fill="none" xmlns="http://www.w3.org/2000/svg">
<g clip-path="url(#clip0_73_188)">
<path d="M19.0465 11.7146H18.7472V9.0187C18.7472 8.5919 18.5348 8.21401 18.2103 7.9844V7.61733C18.2103 7.08487 17.7772 6.65171 17.2447 6.65171H17.0212L17.8763 5.39702C18.1629 4.97647 18.0539 4.40112 17.6334 4.11448L11.8314 0.160576C11.6276 0.0217088 11.3821 -0.0295412 11.1398 0.0164354C11.0206 0.0386811 10.9069 0.0843495 10.8055 0.150797C10.7041 0.217245 10.6168 0.303151 10.5488 0.403545L5.54097 7.7521H4.14741L4.48363 4.34858C4.48741 4.31022 4.51234 4.27698 4.5471 4.2639C4.98027 4.10058 5.35566 3.79558 5.60409 3.40511C5.62366 3.37437 5.66058 3.35679 5.69878 3.36065L7.88452 3.57659C7.92177 3.58027 7.95937 3.57658 7.99518 3.56572C8.031 3.55487 8.06432 3.53707 8.09326 3.51333C8.12219 3.4896 8.14617 3.4604 8.16382 3.4274C8.18147 3.3944 8.19245 3.35825 8.19613 3.32101C8.1998 3.28376 8.19611 3.24616 8.18526 3.21035C8.1744 3.17453 8.1566 3.14121 8.13287 3.11227C8.10913 3.08334 8.07993 3.05936 8.04693 3.04171C8.01394 3.02406 7.97778 3.01308 7.94054 3.0094L5.7548 2.79347C5.50109 2.76862 5.25913 2.88554 5.1232 3.09913C4.94054 3.38624 4.66452 3.61046 4.34605 3.73054C4.10632 3.82093 3.94171 4.03624 3.9164 4.29253L3.57468 7.75206H3.21128L3.743 2.36909C3.76214 2.17534 3.93507 2.033 4.12906 2.05241L8.54601 2.48874C8.62122 2.49617 8.69631 2.47341 8.75474 2.42548C8.81318 2.37755 8.85018 2.30837 8.85761 2.23315C8.86504 2.15794 8.84228 2.08286 8.79435 2.02442C8.74642 1.96598 8.67724 1.92898 8.60202 1.92155L4.18507 1.48522C3.67866 1.43526 3.22581 1.80655 3.17577 2.31304L2.74718 6.65171H2.0173C1.48488 6.65171 1.05167 7.08487 1.05167 7.61733V7.86772C0.616086 8.06827 0.312805 8.50858 0.312805 9.0187V18.7334C0.312805 19.4318 0.881008 20 1.57948 20H17.4805C18.179 20 18.7472 19.4318 18.7472 18.7334V16.0375H19.0465C19.3998 16.0375 19.6871 15.7501 19.6871 15.3969V12.3553C19.6872 12.002 19.3998 11.7146 19.0465 11.7146ZM17.2447 7.22171C17.4629 7.22167 17.6404 7.39917 17.6404 7.61737V7.76257C17.5874 7.75573 17.534 7.75225 17.4805 7.75214H16.2714L16.6328 7.22171H17.2447ZM11.0198 0.724482C11.0458 0.686084 11.0792 0.653226 11.118 0.627808C11.1568 0.602389 11.2003 0.584915 11.2459 0.576396C11.2914 0.567639 11.3382 0.568001 11.3836 0.577461C11.429 0.586922 11.4721 0.605294 11.5104 0.631514L17.3124 4.58542C17.4732 4.69507 17.515 4.91515 17.4053 5.07601L15.5817 7.75202H15.144L16.0381 6.44003C16.1831 6.22726 16.1951 5.95647 16.0692 5.73331C15.9019 5.43683 15.8341 5.08772 15.8783 4.75026C15.9111 4.49921 15.8006 4.25413 15.59 4.11062L12.5823 2.06093C12.3716 1.91737 12.1031 1.90421 11.8814 2.02659C11.5836 2.19104 11.2339 2.25561 10.8968 2.20843C10.6468 2.17335 10.3932 2.28624 10.2503 2.49581L6.66835 7.75206H6.2307L11.0198 0.724482ZM11.1453 5.56397C9.90425 5.56397 8.8855 6.53167 8.80249 7.75206H7.358L10.7212 2.81679H10.7213C10.7305 2.80313 10.7429 2.79192 10.7574 2.78411C10.7719 2.77631 10.7881 2.77215 10.8046 2.77198C10.8089 2.77198 10.8133 2.77229 10.8176 2.77288C11.2761 2.83702 11.7517 2.74929 12.1569 2.52558C12.1887 2.50792 12.2297 2.51046 12.2612 2.53194L15.269 4.58167C15.3005 4.60315 15.3178 4.64034 15.3131 4.67644C15.2531 5.13538 15.3453 5.61015 15.5728 6.01335C15.591 6.04573 15.5888 6.08722 15.5672 6.11905L14.4544 7.75202H13.4882C13.4051 6.53167 12.3864 5.56397 11.1453 5.56397ZM12.9167 7.7521H9.37394C9.45558 6.84628 10.2186 6.13397 11.1453 6.13397C12.072 6.13393 12.8351 6.84628 12.9167 7.7521ZM1.62163 7.61733C1.62163 7.39913 1.79909 7.22163 2.0173 7.22163H2.69089L2.63851 7.75206H1.62163V7.61733ZM0.882766 9.0187C0.882766 8.63456 1.19531 8.32202 1.57948 8.32202H17.4805C17.8647 8.32202 18.1772 8.63456 18.1772 9.0187V9.80948H0.882766V9.0187ZM18.1772 18.7334C18.1772 19.1175 17.8647 19.43 17.4805 19.43H1.57948C1.19531 19.43 0.882766 19.1175 0.882766 18.7334V17.9426H2.41956C2.45698 17.9426 2.49404 17.9352 2.52861 17.9209C2.56319 17.9066 2.5946 17.8856 2.62106 17.8591C2.64752 17.8326 2.66851 17.8012 2.68283 17.7667C2.69715 17.7321 2.70452 17.695 2.70452 17.6576C2.70452 17.6202 2.69715 17.5831 2.68283 17.5486C2.66851 17.514 2.64752 17.4826 2.62106 17.4561C2.5946 17.4296 2.56319 17.4087 2.52861 17.3943C2.49404 17.38 2.45698 17.3726 2.41956 17.3726H0.882766V10.3794H18.1772V11.7146H15.4676C14.6138 11.7146 13.8743 12.2123 13.5233 12.9326C13.5221 12.935 13.5208 12.9374 13.5196 12.9398C13.5166 12.9459 13.5141 12.9523 13.5112 12.9585C13.4694 13.0473 13.433 13.1392 13.4035 13.234L13.4032 13.2348C13.3387 13.4424 13.306 13.6586 13.3061 13.876C13.3061 15.0679 14.2757 16.0375 15.4675 16.0375H18.1772V17.3726H4.24433C4.20691 17.3726 4.16985 17.38 4.13528 17.3943C4.10071 17.4087 4.06929 17.4296 4.04283 17.4561C4.01637 17.4826 3.99538 17.514 3.98106 17.5486C3.96674 17.5831 3.95937 17.6202 3.95937 17.6576C3.95937 17.695 3.96674 17.7321 3.98106 17.7667C3.99538 17.8012 4.01637 17.8326 4.04283 17.8591C4.06929 17.8856 4.10071 17.9066 4.13528 17.9209C4.16985 17.9352 4.20691 17.9426 4.24433 17.9426H18.1772V18.7334ZM19.1172 15.3968C19.1172 15.4358 19.0855 15.4675 19.0465 15.4675H15.4676C14.8643 15.4675 14.3383 15.1301 14.0685 14.634C14.0315 14.566 13.9995 14.4954 13.9729 14.4227C13.9103 14.2521 13.8762 14.068 13.8762 13.876C13.876 13.6374 13.9297 13.4017 14.0333 13.1867C14.0445 13.1635 14.0562 13.1406 14.0685 13.1181C14.3383 12.622 14.8643 12.2846 15.4676 12.2846H19.0465C19.0855 12.2846 19.1172 12.3163 19.1172 12.3553V15.3968Z" fill="#D9151F"/>
<path d="M15.5344 12.7198C14.8968 12.7198 14.3782 13.2385 14.3782 13.876C14.3782 14.5136 14.8968 15.0322 15.5344 15.0322C16.172 15.0322 16.6907 14.5136 16.6907 13.876C16.6907 13.2385 16.172 12.7198 15.5344 12.7198ZM15.5344 14.4623C15.2111 14.4623 14.9481 14.1993 14.9481 13.876C14.9481 13.5528 15.2111 13.2897 15.5344 13.2897C15.8577 13.2897 16.1207 13.5528 16.1207 13.876C16.1207 14.1993 15.8577 14.4623 15.5344 14.4623Z" fill="#D9151F"/>
</g>
<defs>
<clipPath id="clip0_73_188">
<rect width="20" height="20" fill="white"/>
</clipPath>
</defs>
</svg>
